<svg xmlns="http://www.w3.org/2000/svg" xmlns:xlink="http://www.w3.org/1999/xlink" width="500" zoomAndPan="magnify" viewBox="0 0 375 374.999991" height="500" preserveAspectRatio="xMidYMid meet" version="1.0"><defs><clipPath id="f6ad4d3c87"><path d="M 6.328125 127 L 348 127 L 348 292 L 6.328125 292 Z M 6.328125 127 " clip-rule="nonzero"/></clipPath></defs><path fill="#c335d6" d="M 66.21875 340.941406 C 64.421875 333.480469 77.707031 330.472656 100.324219 334.230469 C 127.96875 338.828125 159.085938 351.800781 169.828125 363.203125 C 174.820312 368.496094 174.535156 372.527344 170.03125 374.859375 C 159.535156 374.121094 148.945312 372.417969 138.363281 369.699219 C 140.214844 368.738281 140.332031 367.082031 138.28125 364.90625 C 133.871094 360.226562 121.089844 354.898438 109.738281 353.015625 C 100.449219 351.464844 94.992188 352.707031 95.734375 355.769531 C 85.300781 351.625 75.441406 346.648438 66.21875 340.941406 " fill-opacity="1" fill-rule="nonzero"/><path fill="#c335d6" d="M 222.03125 348.195312 C 201.488281 326.582031 142.347656 301.800781 89.722656 293.046875 C 77.257812 290.972656 66.285156 289.984375 57.066406 289.960938 L 64.578125 316.398438 C 72.441406 315.753906 82.761719 316.355469 95.078125 318.40625 C 133.574219 324.804688 176.90625 342.867188 191.867188 358.746094 C 198.8125 366.121094 198.417969 371.726562 192.144531 374.976562 C 202.445312 374.363281 241.882812 369.078125 222.03125 348.195312 " fill-opacity="1" fill-rule="nonzero"/><g clip-path="url(#f6ad4d3c87)"><path fill="#9700bb" d="M 336.410156 230.703125 C 299.75 192.378906 194.679688 148.1875 101.085938 132.621094 C 65.515625 126.703125 36.765625 125.734375 16.785156 128.929688 L 6.320312 162.953125 C 25.722656 158.652344 55.667969 159.152344 93.636719 165.464844 C 184.328125 180.546875 286.40625 223.09375 321.648438 260.496094 C 333.511719 273.097656 336.285156 283.503906 331.277344 291.191406 C 331.277344 291.191406 363.40625 258.929688 336.410156 230.703125 " fill-opacity="1" fill-rule="nonzero"/></g><path fill="#c335d6" d="M 269.332031 319.734375 C 240.863281 289.84375 159.035156 255.511719 86.191406 243.398438 C 84.75 243.160156 83.324219 242.929688 81.910156 242.710938 L 73.132812 271.25 C 77.675781 271.789062 82.429688 272.464844 87.390625 273.292969 C 149.050781 283.542969 218.460938 312.472656 242.421875 337.90625 C 253.550781 349.722656 252.917969 358.703125 242.871094 363.90625 C 242.871094 363.90625 298.847656 350.71875 269.332031 319.734375 " fill-opacity="1" fill-rule="nonzero"/><path fill="#9700bb" d="M 308.53125 279.875 C 274.554688 244.1875 176.871094 203.214844 89.921875 188.753906 C 68.578125 185.207031 49.875 183.574219 34.304688 183.664062 L 24.0625 216.96875 C 40.273438 215.675781 61.527344 216.933594 86.847656 221.144531 C 166.359375 234.363281 255.859375 271.671875 286.753906 304.46875 C 299.289062 317.769531 300.253906 328.285156 291.664062 335.207031 C 291.664062 335.207031 338.078125 310.90625 308.53125 279.875 " fill-opacity="1" fill-rule="nonzero"/><path fill="#9700bb" d="M 119.121094 80.363281 C 115.574219 79.769531 112.105469 79.238281 108.699219 78.742188 L 99.558594 108.472656 C 102.300781 108.882812 105.085938 109.320312 107.914062 109.789062 C 201.765625 125.398438 307.34375 169.492188 343.878906 208.140625 C 356.878906 221.894531 355.820312 235.472656 355.820312 235.472656 C 359.046875 222.585938 368.574219 195.929688 349.449219 176.363281 C 313.15625 139.242188 210.730469 95.59375 119.121094 80.363281 " fill-opacity="1" fill-rule="nonzero"/><path fill="#7500a0" d="M 165.640625 12.335938 C 152.402344 10.136719 140.539062 8.929688 130.261719 8.632812 L 125.753906 23.289062 C 133.648438 24.015625 142.140625 25.117188 151.183594 26.625 C 226.289062 39.113281 310.832031 74.347656 340.011719 105.328125 C 344.28125 109.855469 347.128906 114.039062 348.640625 117.84375 C 348.640625 117.84375 346.261719 98.511719 327.480469 79.789062 C 301.640625 54.046875 230.007812 23.039062 165.640625 12.335938 " fill-opacity="1" fill-rule="nonzero"/><path fill="#7500a0" d="M 63.097656 37.347656 C 80.527344 33.550781 107.320312 34.015625 141.246094 39.660156 C 222.664062 53.203125 313.6875 92 345.949219 124.984375 C 367.121094 146.621094 361.582031 175.542969 361.582031 175.542969 C 361.1875 169.519531 357.421875 162.457031 349.921875 154.5 C 315.609375 118.078125 216.210938 76.644531 127.90625 61.960938 C 99.125 57.175781 75.078125 55.820312 56.921875 57.433594 L 63.097656 37.347656 " fill-opacity="1" fill-rule="nonzero"/><path fill="#7500a0" d="M 316.273438 64.042969 C 316.273438 64.042969 302.886719 39.863281 257.089844 19.796875 C 237.378906 11.167969 213.660156 3.808594 191.367188 0.0234375 L 188.996094 7.71875 C 241.046875 18.542969 298.0625 44.335938 316.273438 64.042969 " fill-opacity="1" fill-rule="nonzero"/></svg>