<?xml version="1.0" standalone="no"?>
<!DOCTYPE svg PUBLIC "-//W3C//DTD SVG 20010904//EN"
 "http://www.w3.org/TR/2001/REC-SVG-20010904/DTD/svg10.dtd">
<svg version="1.0" xmlns="http://www.w3.org/2000/svg"
 width="700.000000pt" height="700.000000pt" viewBox="0 0 700.000000 700.000000"
 preserveAspectRatio="xMidYMid meet">
<metadata>
Created by potrace 1.14, written by Peter Selinger 2001-2017
</metadata>
<g transform="translate(0.000000,700.000000) scale(0.100000,-0.100000)"
fill="#000000" stroke="none">
<path d="M3551 6929 c-12 -39 -21 -72 -19 -73 1 -1 68 -17 148 -35 621 -141
1357 -430 1835 -720 126 -77 277 -187 338 -246 53 -53 46 -33 -17 45 -287 355
-786 662 -1441 886 -177 61 -488 150 -585 167 -14 3 -59 12 -100 20 -150 32
-133 36 -159 -44z"/>
<path d="M2425 6817 c-4 -12 -19 -62 -35 -112 -39 -125 -42 -142 -27 -142 6 0
44 -4 82 -8 39 -4 81 -9 95 -10 14 -1 45 -5 70 -9 25 -4 56 -9 70 -11 103 -15
287 -47 347 -59 40 -9 87 -18 105 -21 238 -42 762 -183 1113 -300 193 -64 532
-191 632 -236 24 -10 45 -19 48 -19 3 0 39 -16 81 -35 41 -19 77 -35 79 -35
21 0 465 -222 605 -303 392 -225 699 -482 789 -659 51 -100 -10 112 -66 230
-172 364 -458 616 -1058 933 -410 216 -1148 495 -1611 608 -22 5 -64 16 -94
24 -52 14 -219 52 -268 62 -13 2 -31 6 -40 9 -9 3 -33 8 -52 11 -40 6 -135 23
-166 29 -29 6 -70 12 -194 30 -150 21 -275 33 -417 41 -78 4 -82 3 -88 -18z"/>
<path d="M1489 6345 c-2 -2 -42 -6 -89 -10 -47 -4 -92 -9 -102 -10 -9 -2 -37
-7 -62 -10 -25 -4 -50 -12 -55 -19 -5 -6 -30 -81 -56 -166 -25 -85 -50 -164
-55 -175 -7 -20 -4 -20 259 -20 235 0 423 -7 516 -20 17 -2 55 -7 85 -10 49
-5 135 -15 255 -30 41 -5 369 -61 415 -70 14 -3 41 -8 60 -11 143 -26 451 -97
655 -151 1086 -285 2119 -720 2785 -1171 346 -235 581 -483 631 -664 5 -21 14
-38 20 -38 16 0 8 231 -12 340 -64 348 -238 574 -671 873 -53 37 -101 67 -106
67 -6 0 -12 4 -14 9 -1 4 -22 19 -45 32 -23 13 -101 58 -175 101 -230 132
-600 311 -878 424 -47 19 -94 39 -105 44 -11 5 -69 28 -130 51 -443 167 -778
273 -1255 398 -95 25 -403 93 -485 107 -16 3 -73 14 -125 24 -52 10 -117 21
-145 25 -27 3 -70 10 -95 15 -41 9 -231 32 -375 45 -33 3 -78 8 -100 11 -50 6
-541 14 -546 9z"/>
<path d="M2025 5513 c-28 -72 -162 -529 -157 -534 4 -4 54 -14 112 -23 121
-20 146 -24 180 -31 14 -3 39 -7 55 -10 17 -3 41 -8 55 -10 14 -3 36 -7 50
-10 14 -2 45 -9 70 -15 25 -5 56 -12 70 -14 156 -27 658 -155 950 -243 269
-80 801 -261 895 -303 11 -5 90 -37 175 -70 131 -52 278 -114 415 -176 17 -7
136 -64 265 -127 478 -233 825 -449 1105 -688 233 -199 345 -372 370 -573 4
-31 10 -55 12 -52 5 5 49 170 59 221 75 389 16 651 -195 863 -189 190 -493
408 -821 589 -30 17 -82 46 -115 64 -64 35 -472 239 -479 239 -2 0 -42 17 -88
39 -45 21 -139 62 -208 91 -69 29 -140 59 -157 67 -18 7 -63 25 -100 39 -38
13 -77 29 -88 34 -103 50 -830 292 -1085 361 -25 7 -49 14 -55 15 -31 9 -403
105 -420 108 -11 3 -49 11 -85 20 -36 8 -76 17 -90 20 -14 3 -88 18 -165 34
-77 17 -158 33 -180 36 -22 4 -106 18 -186 31 -81 14 -149 25 -152 25 -3 0 -8
-8 -12 -17z"/>
<path d="M617 4624 c-1 -1 -40 -4 -87 -8 -130 -9 -204 -18 -212 -25 -6 -5 -39
-107 -135 -421 -14 -47 -34 -112 -44 -144 -11 -33 -18 -61 -16 -62 2 -2 41 3
88 11 153 26 202 29 474 29 234 1 398 -6 510 -19 17 -2 57 -7 90 -10 101 -11
136 -15 245 -30 225 -33 319 -49 526 -91 98 -20 188 -38 198 -40 167 -33 664
-164 941 -248 235 -72 709 -237 860 -301 17 -7 104 -43 195 -80 980 -401 1734
-903 1925 -1281 54 -106 66 -222 30 -295 l-16 -34 37 40 c110 121 206 308 239
467 21 99 14 255 -15 338 -67 188 -232 365 -561 600 -113 81 -316 211 -424
270 -33 18 -100 55 -149 83 -101 57 -526 265 -601 295 -27 11 -79 33 -115 50
-270 124 -852 336 -1310 476 -192 59 -646 179 -795 211 -11 2 -72 15 -135 29
-122 26 -483 95 -534 101 -17 2 -62 9 -101 15 -137 20 -246 34 -370 45 -38 4
-81 8 -95 10 -85 12 -631 29 -643 19z"/>
<path d="M600 3439 c-23 -74 -62 -199 -86 -279 -25 -80 -49 -158 -55 -174 -5
-16 -9 -30 -9 -30 0 -1 102 -1 228 -1 207 -1 361 -7 467 -19 22 -3 63 -8 90
-10 60 -7 189 -23 230 -30 17 -2 50 -7 75 -11 87 -13 105 -16 120 -20 8 -2 33
-7 55 -10 22 -3 117 -21 210 -40 94 -20 181 -38 195 -41 195 -40 656 -167 943
-260 170 -55 545 -190 622 -224 22 -10 92 -39 155 -65 235 -98 590 -267 745
-355 112 -63 235 -137 277 -167 26 -18 50 -33 53 -33 5 0 172 -118 191 -135 7
-5 31 -26 55 -45 40 -32 110 -94 163 -145 59 -56 150 -177 183 -244 33 -67 37
-85 37 -151 1 -81 -13 -120 -63 -174 -31 -35 -18 -28 69 33 229 161 354 325
384 503 30 175 -47 344 -235 523 -180 170 -464 368 -789 549 -70 39 -545 276
-554 276 -2 0 -33 13 -68 29 -300 139 -965 384 -1278 472 -54 15 -51 14 -70
22 -74 28 -644 174 -834 213 -11 2 -63 12 -115 23 -53 11 -109 22 -126 25 -80
15 -204 36 -240 41 -22 3 -51 8 -65 11 -14 2 -41 6 -60 9 -97 12 -118 15 -160
20 -86 12 -105 14 -185 21 -44 3 -93 8 -110 10 -16 2 -114 6 -217 10 l-186 7
-42 -134z"/>
<path d="M1502 2378 c-73 -222 -133 -431 -125 -438 4 -5 35 -11 68 -14 33 -3
72 -8 88 -11 29 -5 120 -21 176 -30 174 -29 481 -101 783 -184 117 -32 452
-145 633 -213 526 -199 1043 -475 1283 -686 186 -163 265 -282 266 -397 0 -69
-23 -113 -89 -165 -21 -16 -35 -30 -32 -30 3 0 55 18 115 39 190 68 319 141
411 232 138 139 142 303 12 474 -225 294 -834 665 -1561 952 -91 36 -178 71
-195 78 -183 79 -780 265 -1085 338 -275 67 -408 94 -640 133 -14 3 -37 7 -51
10 -26 5 -28 2 -57 -88z"/>
<path d="M1070 1577 c0 -7 31 -117 68 -246 l67 -233 160 -3 c88 -2 180 -6 205
-9 25 -4 63 -9 85 -12 22 -2 51 -7 65 -9 14 -3 41 -7 60 -10 117 -19 223 -42
360 -76 474 -122 929 -308 1220 -500 173 -114 279 -220 306 -304 9 -27 10 -39
5 -89 0 -8 -17 -30 -37 -50 l-36 -36 43 5 c277 33 446 87 540 172 101 91 85
196 -50 333 -150 153 -343 282 -659 440 -328 163 -620 275 -1114 426 -55 16
-360 92 -403 100 -16 3 -59 11 -95 19 -36 7 -83 17 -105 21 -22 4 -44 8 -50
10 -11 2 -71 11 -137 20 -24 3 -54 7 -68 9 -88 14 -197 23 -342 30 -65 3 -88
1 -88 -8z"/>
<path d="M1429 785 c-2 -2 -22 -6 -44 -9 -85 -14 -156 -68 -149 -113 1 -7 2
-17 3 -22 2 -20 313 -185 466 -247 77 -32 80 -32 87 -13 20 54 188 53 391 -2
255 -69 467 -203 417 -264 -6 -7 -7 -15 -3 -18 17 -10 215 -51 300 -63 26 -3
56 -8 66 -10 20 -3 131 -15 185 -19 47 -3 92 42 87 88 -9 101 -136 215 -386
346 -299 157 -705 285 -1064 335 -89 12 -347 21 -356 11z"/>
</g>
</svg>
